PathFileType	4	(X/Y/Z)	Walk4.trc
DataRate	CameraRate	NumFrames	NumMarkers	Units	OrigDataRate	OrigDataStartFrame	OrigNumFrames
200.000000	200.000000	4	61	mm	200.000000	443	476
Frame#	Times		LFHD		RFHD		CLAV		LASI		RASI		RACR1		RUA1		RWRU		RCAR		LACR1		LUA1		LWRU		LCAR		RTH3		RTB1		LTH1		LTH2		LTH4		LLFC		LTB1		LTB2		LTB4		LTH3		LFA1		RTH2		LToe		LTB3		STRN		RTB4		LBHD		RWRR		RTB3		RMT5		RFA1		RMFC		RToe		RTH4		RTH1		RLFC		RMT1		RTB2		LElbow		RMMAL		LWRR		LMFC		T10		RElbow		LPSI		LMT1		RBack		LCAL		RBHD		LMMAL		RPSI		RElbowM		RLMAL		RCAL		C7		LMT5		LElbowM		LLMAL
			X1	Y1	Z1	X2	Y2	Z2	X3	Y3	Z3	X4	Y4	Z4	X5	Y5	Z5	X6	Y6	Z6	X7	Y7	Z7	X8	Y8	Z8	X9	Y9	Z9	X10	Y10	Z10	X11	Y11	Z11	X12	Y12	Z12	X13	Y13	Z13	X14	Y14	Z14	X15	Y15	Z15	X16	Y16	Z16	X17	Y17	Z17	X18	Y18	Z18	X19	Y19	Z19	X20	Y20	Z20	X21	Y21	Z21	X22	Y22	Z22	X23	Y23	Z23	X24	Y24	Z24	X25	Y25	Z25	X26	Y26	Z26	X27	Y27	Z27	X28	Y28	Z28	X29	Y29	Z29	X30	Y30	Z30	X31	Y31	Z31	X32	Y32	Z32	X33	Y33	Z33	X34	Y34	Z34	X35	Y35	Z35	X36	Y36	Z36	X37	Y37	Z37	X38	Y38	Z38	X39	Y39	Z39	X40	Y40	Z40	X41	Y41	Z41	X42	Y42	Z42	X43	Y43	Z43	X44	Y44	Z44	X45	Y45	Z45	X46	Y46	Z46	X47	Y47	Z47	X48	Y48	Z48	X49	Y49	Z49	X50	Y50	Z50	X51	Y51	Z51	X52	Y52	Z52	X53	Y53	Z53	X54	Y54	Z54	X55	Y55	Z55	X56	Y56	Z56	X57	Y57	Z57	X58	Y58	Z58	X59	Y59	Z59	X60	Y60	Z60	X61	Y61	Z61

443	2.215	1470.1	1602.1	-52.416	1465.8	1605.3	46.993	1437.6	1332.2	0.76458	1428.8	918.41	-102.46	1423.5	931.53	144.14	1360.3	1367.4	163.78	1358.6	1198.1	221.97	1424.6	789.88	264.94	1404.1	726.21	315.45	1365.6	1375.4	-152.03	1370	1205.5	-222.38	1551.4	858.46	-263.02	1557.4	787.88	-296.1	1483.1	610.93	185.52	1522.8	362.03	132.63	1371.7	747.27	-163.76	1412.3	662.76	-120.88	1357.9	662.88	-147.24	1320.1	440.99	-101.64	1339.2	341.83	-29.471	1304.7	255.36	-80.68	1315.7	259.09	-20.552	1347.2	581.41	-128.11	1453	933.41	-280.44	1496.7	715.57	186.32	1421.6	24.441	4.0136	1297.9	177.2	-10.388	1467.2	1201.2	10.424	1481.3	286.03	124.64	1329.5	1535.4	-79.972	1365.3	790.37	300.28	1440.3	211.24	114.36	1424.4	56.333	139.95	1379.2	911.15	289.76	1533.5	469.88	33.579	1511.4	48.909	106.12	1447.2	686.36	201.77	1411.2	763.38	220.68	1536.2	475.04	162.02	1468.6	59.244	65.975	1437.1	307.59	160.94	1369.7	1050.2	-256.23	1373.1	144.3	44.077	1492.1	822.43	-265.94	1284.6	441.66	27.571	1254.4	1210.3	1.6869	1347	1034.3	256.99	1253.8	974.47	-35.647	1364.5	31.444	27.714	1249.1	1298.1	70.895	1172.8	47.523	-8.4172	1325	1545.9	65.475	1243	93.448	30.814	1253.7	967.58	65.181	1324.5	1026.2	181.29	1344.2	133.07	121.92	1292.5	122.83	72.287	1318.4	1425.6	-5.7864	1335.2	24.542	-55.848	1358.3	1024.9	-184.42	1232.4	71.861	-49.934
444	2.22	1477.6	1601.7	-52.382	1473.3	1604.9	47.023	1444.9	1331.8	0.65735	1435.6	917.92	-102.53	1431.1	931.26	144.15	1367.3	1367	163.57	1364.8	1197.8	221.95	1428.1	789.28	266.27	1406.5	725.79	316.63	1373.2	1375.3	-152.15	1378.4	1205.5	-222.74	1566.1	863.03	-261.2	1574.6	792.55	-293.87	1492.3	611.62	185.45	1536.4	362.99	132.4	1376.8	747.12	-163.67	1416.3	662.09	-120.84	1362.1	662.9	-147.17	1321.6	441.37	-101.81	1340.4	342.09	-29.635	1305.5	255.78	-80.791	1316.6	259.47	-20.652	1350.4	581.58	-128.02	1465.9	935.28	-280.12	1505.1	716.34	186.95	1421.7	24.345	4.0801	1298.6	177.63	-10.473	1474.4	1200.8	10.243	1497.7	285.58	124.51	1337.1	1535.1	-80.132	1368.3	790.23	300.91	1459.5	209.39	114.32	1449.1	54.137	140.07	1383.4	910.99	290.34	1543.2	471.32	33.624	1536.2	49.871	106.06	1455.8	686.68	202.02	1419.2	763.33	221.26	1546.6	476.21	161.77	1493.2	58.736	66.05	1453	305.41	161.1	1379.3	1050.3	-256.87	1394.7	140.09	44.246	1507.7	825.33	-265.1	1286.4	442.28	27.571	1261.7	1210	1.5137	1352.5	1034.2	257.04	1260.8	974.2	-35.038	1364.6	31.419	27.692	1256.3	1297.7	70.432	1173	48.387	-8.1594	1332.5	1545.5	65.344	1243.4	94.076	30.878	1261.1	967.29	65.765	1330.6	1026	181.25	1366.3	127.78	122.16	1315	115.8	72.503	1325.9	1425.3	-6.0531	1335.2	24.554	-55.752	1367.6	1024.7	-185.34	1232.6	72.538	-49.835
445	2.225	1485.2	1601.3	-52.36	1480.7	1604.4	47.04	1452.2	1331.3	0.5552	1442.3	917.35	-102.62	1438.7	930.87	144.15	1374.4	1366.6	163.38	1371.1	1197.4	221.98	1431.6	788.65	267.61	1409	725.34	317.8	1380.8	1375	-152.25	1386.8	1205.4	-223.08	1580.5	867.61	-259.34	1591.5	797.32	-291.64	1501.3	612.13	185.33	1549.8	363.9	132.14	1381.8	746.93	-163.62	1420.4	661.41	-120.88	1366.3	662.9	-147.15	1323.2	441.74	-102	1341.8	342.34	-29.803	1306.4	256.19	-80.91	1317.6	259.84	-20.755	1353.6	581.72	-127.95	1478.8	937.16	-279.77	1513.4	716.91	187.55	1421.7	24.297	4.0992	1299.3	178.06	-10.565	1481.7	1200.2	10.071	1514	285.17	124.36	1344.7	1534.7	-80.304	1371.4	790.03	301.54	1478.6	207.65	114.27	1474	52.228	140.17	1387.6	910.76	290.94	1552.6	472.54	33.655	1561.1	51.147	105.96	1464.3	686.84	202.25	1427.1	763.14	221.85	1556.8	477.2	161.5	1517.8	58.528	66.095	1469	303.2	161.28	1389	1050.3	-257.51	1416.4	136.03	44.427	1523.2	828.3	-264.23	1288.4	442.89	27.578	1269	1209.6	1.3687	1357.9	1034	257.11	1267.8	973.84	-34.377	1364.7	31.389	27.673	1263.6	1297.3	69.998	1173.2	49.277	-7.9149	1340	1545	65.202	1243.8	94.715	30.935	1268.4	966.92	66.395	1336.8	1025.6	181.25	1388.6	122.65	122.42	1337.7	108.92	72.768	1333.4	1424.9	-6.3028	1335.1	24.566	-55.652	1377	1024.4	-186.27	1232.7	73.217	-49.728
446	2.23	1492.7	1600.9	-52.348	1488.2	1603.9	47.046	1459.6	1330.7	0.4584	1449	916.73	-102.74	1446.4	930.37	144.14	1381.6	1366.1	163.19	1377.3	1197	222.03	1435.3	787.98	268.96	1411.6	724.85	318.95	1388.4	1374.7	-152.33	1395.1	1205.2	-223.39	1594.6	872.17	-257.44	1608.2	802.17	-289.4	1510.2	612.46	185.17	1563	364.77	131.86	1386.8	746.7	-163.6	1424.5	660.73	-121.01	1370.5	662.87	-147.16	1324.9	442.08	-102.18	1343.2	342.56	-29.971	1307.3	256.59	-81.036	1318.7	260.18	-20.86	1356.8	581.83	-127.87	1491.5	939.06	-279.38	1521.6	717.27	188.13	1421.8	24.295	4.0702	1300.1	178.48	-10.664	1489	1199.6	9.911	1530.3	284.8	124.19	1352.3	1534.2	-80.486	1374.7	789.78	302.18	1497.8	206.03	114.21	1499	50.638	140.24	1391.9	910.47	291.56	1561.7	473.54	33.674	1585.9	52.76	105.8	1472.7	686.83	202.46	1435	762.82	222.44	1566.7	478	161.22	1542.5	58.645	66.104	1485	300.98	161.47	1398.7	1050.2	-258.15	1438.3	132.15	44.62	1538.4	831.32	-263.34	1290.6	443.48	27.592	1276.3	1209.2	1.2518	1363.3	1033.8	257.21	1274.7	973.38	-33.663	1364.8	31.355	27.655	1271	1296.8	69.599	1173.3	50.194	-7.6848	1347.4	1544.4	65.049	1244.2	95.363	30.986	1275.8	966.44	67.072	1342.9	1025.2	181.27	1411.2	117.7	122.71	1360.7	102.22	73.077	1340.9	1424.5	-6.5327	1335.1	24.575	-55.55	1386.3	1023.9	-187.23	1232.9	73.896	-49.613
